<svg version="1" xmlns="http://www.w3.org/2000/svg" width="380" height="380" viewBox="0 0 285.000000 285.000000"><path d="M122.3 54.1c-36.2 4.2-69.1 18.3-90.4 38.6-12.7 12.1-19.5 22.6-24 37.3-2 6.2-2.4 9.5-2.3 19.5.1 8.3.6 13.4 1.8 16.5l1.6 4.5-.5-4.3c-.6-5.1.4-14.4 1.5-13.7.4.3 2-3 3.5-7.3 9.8-28.1 36.6-51.5 74.1-64.5C137 63.5 194.4 70.9 222 97.9c27.7 27.2 16.9 59.7-31.9 95.4-6.5 4.8-9.1 5.8-9.1 3.3 0-.7-.9-3.6-2.1-6.3l-2-5-18.2 3.8c-29.9 6.1-45.7 7.1-51.5 3.3-2.1-1.4-2.3-2-1.7-6.7.3-2.9 2-8 3.6-11.4 6.3-13.1 18.8-18.2 37.6-15.3l8.6 1.4 2.8-3.5c1.5-1.9 4.9-7.4 7.5-12.3 3.7-6.9 4.5-9.3 3.7-10.6-.7-1-.7-2.2-.1-3.3.7-1.3.5-1.9-.7-2.3-2.1-.9-17 1.1-33.3 4.3-7.3 1.4-13.5 2.4-13.8 2.1-.2-.3.3-3.9 1.2-7.9 2.1-9.3 5.5-13.1 13.2-14.8 9.5-2 28.6-.8 37.2 2.4 8.9 3.3 9.7 3.2 14.7-2.1 6.4-6.8 12.1-15.6 10.6-16.1-.8-.3-1.1-1.4-.7-2.9.3-1.3.2-2.4-.2-2.4-.5-.1-21.1-.1-45.9-.2l-44.9-.2-2.7 3.7c-9.4 12.9-33 84.3-35.7 107.7-1 8.9-.6 10.6 3.1 13.2 3.1 2.2 4.1 2.3 31.7 2.8 26.4.5 28.1.6 22.5 1.8-3.3.7-11.6 1.6-18.5 1.9-14.1.7-13.3 1.5 3.8 3.5 5.6.6 9.7 1.5 9 1.9-2.5 1.6 9.2 2.1 22.1 1 25.3-2.1 48.7-8.8 71.1-20.3 17.4-8.8 30.1-17.9 42-29.8 9.9-9.9 14.4-16.5 18.8-27.2 3.5-8.7 3.5-20.4 0-30.4-11.3-32.3-57.7-60.5-109.3-66.4-10.4-1.1-31.8-1.1-42.2.1z"/></svg>